# File created by Blade
# Date/Time:  Tue Sep 30 19:06:46 2014
#---------------------------------------------------------
:version 1.10
:name HOM
:units
  mass 1.0
  length 1.000000
  angle deg
:documentation
     Acclaim Skeleton File
:root
   axis xyz
   order TX TY TZ RX RY RZ
   position 0.000000 0.000000 0.000000
   orientation 0 0 0
:bonedata
   begin
      id 1
      name Spine_dum
      direction 0.000000 1.000000 0.000000
      length 7.508948
      axis 0.0 0.0 0.0 xyz
   end
   begin
      id 2
      name LeftUpLeg_dum
      direction 1.000000 0.000000 0.000000
      length 3.000560
      axis 0.0 0.0 0.0 xyz
   end
   begin
      id 3
      name RightUpLeg_dum
      direction -1.000000 0.000000 0.000000
      length 3.000560
      axis 0.0 0.0 0.0 xyz
   end
   begin
      id 4
      name Spine
      direction 0.000000 1.000000 0.000000
      length 0.000000
      axis 0.0 0.0 0.0 xyz
      dof rx ry rz
   end
   begin
      id 5
      name Spine_dum1
      direction 0.000000 1.000000 0.000000
      length 13.861154
      axis 0.0 0.0 0.0 xyz
   end
   begin
      id 6
      name Spine_dum2
      direction 0.000000 1.000000 0.000000
      length 8.204781
      axis 0.0 0.0 0.0 xyz
   end
   begin
      id 7
      name Spine_dum3
      direction 0.000000 1.000000 0.000000
      length 8.204781
      axis 0.0 0.0 0.0 xyz
   end
   begin
      id 8
      name Head
      direction 0.000000 1.000000 0.000000
      length 4.527550
      axis 0.0 0.0 0.0 xyz
      dof rx ry rz
   end
   begin
      id 9
      name LeftShoulder
      direction 1.000000 0.000000 0.000000
      length 6.635956
      axis 0.0 0.0 -90.0 xyz
      dof rx ry rz
   end
   begin
      id 10
      name LeftArm
      direction 1.000000 0.000000 0.000000
      length 10.274218
      axis 0.0 0.0 -90.0 xyz
      dof rx ry rz
   end
   begin
      id 11
      name LeftForeArm
      direction 1.000000 0.000000 0.000000
      length 8.522147
      axis 0.0 0.0 -90.0 xyz
      dof ry rz rx
   end
   begin
      id 12
      name LeftHand
      direction 0.000000 0.000000 0.000000
      length 0.000000
      axis 0.0 0.0 -90.0 xyz
      dof rx ry rz
   end
   begin
      id 13
      name LeftHand_dum1
      direction 0.000000 0.000000 0.000000
      length 0.000000
      axis 0.0 0.0 -90.0 xyz
   end
   begin
      id 14
      name LeftHand_dum2
      direction 1.000000 0.000000 0.000000
      length 3.937000
      axis 0.0 0.0 -90.0 xyz
   end
   begin
      id 15
      name LeftHandThumb1
      direction 0.000000 0.000000 1.000000
      length 3.937000
      axis 0.0 0.0 -90.0 xyz
      dof rx rz ry
   end
   begin
      id 16
      name RightShoulder
      direction -1.000000 0.000000 0.000000
      length 6.635956
      axis 0.0 0.0 90.0 xyz
      dof rx ry rz
   end
   begin
      id 17
      name RightArm
      direction -1.000000 0.000000 0.000000
      length 10.274218
      axis 0.0 0.0 90.0 xyz
      dof rx ry rz
   end
   begin
      id 18
      name RightForeArm
      direction -1.000000 0.000000 0.000000
      length 8.522147
      axis 0.0 0.0 90.0 xyz
      dof ry rz rx
   end
   begin
      id 19
      name RightHand
      direction 0.000000 0.000000 0.000000
      length 0.000000
      axis 0.0 0.0 90.0 xyz
      dof rx ry rz
   end
   begin
      id 20
      name RightHand_dum1
      direction 0.000000 0.000000 0.000000
      length 0.000000
      axis 0.0 0.0 90.0 xyz
   end
   begin
      id 21
      name RightHand_dum2
      direction -1.000000 0.000000 0.000000
      length 3.937000
      axis 0.0 0.0 90.0 xyz
   end
   begin
      id 22
      name RightHandThumb1
      direction 0.000000 0.000000 1.000000
      length 3.937000
      axis 0.0 0.0 90.0 xyz
      dof rx rz ry
   end
   begin
      id 23
      name LeftUpLeg
      direction 0.000000 -1.000000 0.000000
      length 16.490845
      axis 0.0 0.0 0.0 xyz
      dof rx ry rz
   end
   begin
      id 24
      name LeftLeg
      direction 0.000000 -1.000000 0.000000
      length 14.556576
      axis 0.0 0.0 0.0 xyz
      dof rx ry rz
   end
   begin
      id 25
      name LeftFoot
      direction 0.000000 -0.258819 0.965926
      length 4.831116
      axis 15.0 0.0 0.0 xyz
      dof rx ry rz
   end
   begin
      id 26
      name LeftToeBase
      direction 0.000000 0.000000 1.000000
      length 2.952750
      axis 0.0 0.0 0.0 xyz
      dof rx ry rz
   end
   begin
      id 27
      name RightUpLeg
      direction 0.000000 -1.000000 0.000000
      length 16.490845
      axis 0.0 0.0 0.0 xyz
      dof rx ry rz
   end
   begin
      id 28
      name RightLeg
      direction 0.000000 -1.000000 0.000000
      length 14.556576
      axis 0.0 0.0 0.0 xyz
      dof rx ry rz
   end
   begin
      id 29
      name RightFoot
      direction 0.000000 -0.258819 0.965926
      length 4.831116
      axis 15.0 0.0 0.0 xyz
      dof rx ry rz
   end
   begin
      id 30
      name RightToeBase
      direction 0.000000 0.000000 1.000000
      length 2.952750
      axis 0.0 0.0 0.0 xyz
      dof rx ry rz
   end
:hierarchy
   begin
      root Spine_dum LeftUpLeg_dum RightUpLeg_dum
      Spine_dum Spine
      LeftUpLeg_dum LeftUpLeg
      RightUpLeg_dum RightUpLeg
      Spine Spine_dum1 Spine_dum2 Spine_dum3
      Spine_dum1 Head
      Spine_dum2 LeftShoulder
      Spine_dum3 RightShoulder
      LeftShoulder LeftArm
      LeftArm LeftForeArm
      LeftForeArm LeftHand
      LeftHand LeftHand_dum1 LeftHand_dum2
      LeftHand_dum1 LeftHandThumb1
      RightShoulder RightArm
      RightArm RightForeArm
      RightForeArm RightHand
      RightHand RightHand_dum1 RightHand_dum2
      RightHand_dum1 RightHandThumb1
      LeftUpLeg LeftLeg
      LeftLeg LeftFoot
      LeftFoot LeftToeBase
      RightUpLeg RightLeg
      RightLeg RightFoot
      RightFoot RightToeBase
   end

# File created by Blade
# Date/Time:  Thu Sep 25 18:58:07 2014
# Frame Rate: 120.000 fps
#------------------------------------------------------
:FULLY-SPECIFIED
:DEGREES
1
root 0.515428 32.886065 1.322100 8.371390 4.806099 -0.425719
Spine -9.433853 3.633961 -0.077833
Head -4.188611 -2.047889 10.216257
LeftShoulder -14.377947 14.234742 25.368872
LeftArm 17.175114 -26.421332 -30.376316
LeftForeArm 13.750584 0.000000 15.224061
LeftHand -24.958967 -0.000000 -11.455946
LeftHandThumb1 -26.253704 0.000000 33.147579
RightShoulder -20.581916 15.778792 -35.489046
RightArm -10.115481 8.715189 28.819554
RightForeArm -30.418799 -0.000000 15.226691
RightHand -7.771816 -0.000000 17.293824
RightHandThumb1 -24.326973 -0.000000 -32.862282
LeftUpLeg -3.821078 10.793168 5.036329
LeftLeg -1.668937 -0.000000 0.000000
LeftFoot -5.908541 -2.405898 -17.028468
LeftToeBase 10.416373 -0.000000 -0.000000
RightUpLeg -2.551126 -12.779028 -3.528117
RightLeg 0.631880 -0.000000 -0.000000
RightFoot -6.425420 -4.556839 3.204971
RightToeBase -0.290643 -0.000000 0.000000
2
root 0.517531 32.886271 1.322329 8.354515 4.806484 -0.419342
Spine -9.428832 3.656178 -0.072976
Head -4.023874 -2.080478 10.104925
LeftShoulder -14.378073 14.230418 25.381668
LeftArm 17.188152 -26.472339 -30.384741
LeftForeArm 13.749094 -0.000000 15.314241
LeftHand -25.018618 -0.000000 -11.411538
LeftHandThumb1 -26.253704 0.000000 33.147579
RightShoulder -20.598682 15.783800 -35.544156
RightArm -10.079453 8.682684 28.830472
RightForeArm -30.341884 0.000000 15.207556
RightHand -7.761315 0.000000 17.143133
RightHandThumb1 -24.326973 -0.000000 -32.862282
LeftUpLeg -3.802367 10.786492 5.030074
LeftLeg -1.670175 -0.000000 0.000000
LeftFoot -5.903799 -2.397878 -16.970469
LeftToeBase 10.382135 -0.000000 -0.000000
RightUpLeg -2.534537 -12.776950 -3.542584
RightLeg 0.637139 -0.000000 -0.000000
RightFoot -6.433621 -4.534215 3.255436
RightToeBase -0.286591 -0.000000 0.000000
3
root 0.518463 32.886565 1.321846 8.340668 4.804902 -0.417072
Spine -9.425452 3.661966 -0.064843
Head -3.859706 -2.098580 10.009263
LeftShoulder -14.386765 14.230878 25.377130
LeftArm 17.200636 -26.493519 -30.355496
LeftForeArm 13.719248 -0.000000 15.350030
LeftHand -24.981550 -0.000000 -11.248790
LeftHandThumb1 -26.253704 0.000000 33.147579
RightShoulder -20.595944 15.777016 -35.553952
RightArm -10.015411 8.685977 28.813310
RightForeArm -30.215347 -0.000000 15.183153
RightHand -7.730895 -0.000000 17.106814
RightHandThumb1 -24.326973 -0.000000 -32.862282
LeftUpLeg -3.791724 10.786648 5.027784
LeftLeg -1.663786 -0.000000 0.000000
LeftFoot -5.907591 -2.398926 -16.992467
LeftToeBase 10.368204 -0.000000 -0.000000
RightUpLeg -2.525574 -12.770742 -3.549795
RightLeg 0.647504 -0.000000 -0.000000
RightFoot -6.438049 -4.554399 3.221666
RightToeBase -0.292189 -0.000000 0.000000
4
root 0.520991 32.886577 1.322587 8.321857 4.801804 -0.414696
Spine -9.422914 3.662770 -0.053680
Head -3.680680 -2.136835 9.916982
LeftShoulder -14.360983 14.068224 25.467692
LeftArm 17.066463 -26.433443 -30.370084
LeftForeArm 13.686613 -0.000000 15.477578
LeftHand -25.040060 -0.000000 -11.232559
LeftHandThumb1 -26.253704 0.000000 33.147579
RightShoulder -20.564325 15.792124 -35.596330
RightArm -10.030750 8.731982 28.799037
RightForeArm -30.303628 -0.000000 15.230642
RightHand -7.710292 -0.000000 17.142014
RightHandThumb1 -24.326973 -0.000000 -32.862282
LeftUpLeg -3.771149 10.781297 5.024406
LeftLeg -1.662139 -0.000000 0.000000
LeftFoot -5.912847 -2.388102 -17.006419
LeftToeBase 10.411123 -0.000000 -0.000000
RightUpLeg -2.509089 -12.767421 -3.559841
RightLeg 0.653697 -0.000000 -0.000000
RightFoot -6.434810 -4.562174 3.219989
RightToeBase -0.270973 -0.000000 0.000000
5
root 0.522792 32.886659 1.321459 8.313308 4.809627 -0.410838
Spine -9.423638 3.672007 -0.051922
Head -3.521843 -2.178692 9.838231
LeftShoulder -14.342286 14.055045 25.481222
LeftArm 17.063396 -26.453184 -30.352921
LeftForeArm 13.689174 -0.000000 15.497238
LeftHand -25.027526 -0.000000 -11.138229
LeftHandThumb1 -26.253704 0.000000 33.147579
RightShoulder -20.566938 15.798834 -35.643672
RightArm -10.037860 8.788500 28.802860
RightForeArm -30.305622 -0.000000 15.295597
RightHand -7.809051 -0.000000 17.107329
RightHandThumb1 -24.326973 -0.000000 -32.862282
LeftUpLeg -3.772707 10.787693 5.016326
LeftLeg -1.638013 -0.000000 0.000000
LeftFoot -5.876489 -2.425690 -16.808926
LeftToeBase 10.147751 -0.000000 -0.000000
RightUpLeg -2.505624 -12.781603 -3.568539
RightLeg 0.665132 -0.000000 -0.000000
RightFoot -6.435371 -4.546130 3.225330
RightToeBase -0.302958 -0.000000 0.000000
6
root 0.523887 32.886962 1.322473 8.288235 4.821905 -0.407607
Spine -9.405091 3.673334 -0.054473
Head -3.368634 -2.204703 9.792271
LeftShoulder -14.330638 14.010039 25.489860
LeftArm 17.058493 -26.486231 -30.319957
LeftForeArm 13.729052 -0.000000 15.494671
LeftHand -25.135023 -0.000000 -11.214125
LeftHandThumb1 -26.253704 0.000000 33.147579
RightShoulder -20.574678 15.796853 -35.630555
RightArm -9.968766 8.777916 28.761726
RightForeArm -30.152470 0.000000 15.243676
RightHand -7.704799 0.000000 17.083091
RightHandThumb1 -24.326973 -0.000000 -32.862282
LeftUpLeg -3.746030 10.787044 5.018964
LeftLeg -1.650604 -0.000000 0.000000
LeftFoot -5.902887 -2.423394 -16.998781
LeftToeBase 10.400620 -0.000000 -0.000000
RightUpLeg -2.472570 -12.777230 -3.578579
RightLeg 0.658821 -0.000000 -0.000000
RightFoot -6.429511 -4.568731 3.223809
RightToeBase -0.315030 -0.000000 0.000000
7
root 0.525171 32.886725 1.321830 8.287334 4.824147 -0.401367
Spine -9.411763 3.683237 -0.057359
Head -3.223515 -2.217634 9.730996
LeftShoulder -14.315597 13.932725 25.500611
LeftArm 17.035148 -26.475319 -30.271834
LeftForeArm 13.642839 -0.000000 15.493685
LeftHand -25.164554 -0.000000 -11.209945
LeftHandThumb1 -26.253704 0.000000 33.147579
RightShoulder -20.586357 15.797287 -35.706730
RightArm -9.966873 8.751522 28.817133
RightForeArm -30.154027 0.000000 15.260524
RightHand -7.679445 0.000000 17.059745
RightHandThumb1 -24.326973 -0.000000 -32.862282
LeftUpLeg -3.746843 10.783012 5.009674
LeftLeg -1.650497 -0.000000 0.000000
LeftFoot -5.907015 -2.416846 -16.997629
LeftToeBase 10.416020 -0.000000 -0.000000
RightUpLeg -2.480471 -12.774089 -3.586060
RightLeg 0.677484 -0.000000 -0.000000
RightFoot -6.450160 -4.579315 3.219693
RightToeBase -0.283026 -0.000000 0.000000
8
root 0.526574 32.886609 1.321740 8.275558 4.828247 -0.396968
Spine -9.399940 3.684535 -0.058246
Head -3.091085 -2.242799 9.685167
LeftShoulder -14.375726 14.092781 25.418388
LeftArm 17.214471 -26.696736 -30.306532
LeftForeArm 13.705052 -0.000000 15.500070
LeftHand -25.137602 -0.000000 -11.154692
LeftHandThumb1 -26.253704 0.000000 33.147579
RightShoulder -20.597705 15.829555 -35.725094
RightArm -9.938177 8.743143 28.798101
RightForeArm -30.086838 -0.000000 15.271047
RightHand -7.750138 -0.000000 17.050719
RightHandThumb1 -24.326973 -0.000000 -32.862282
LeftUpLeg -3.737214 10.799353 5.006279
LeftLeg -1.645194 -0.000000 0.000000
LeftFoot -5.902324 -2.450643 -16.979931
LeftToeBase 10.389220 -0.000000 -0.000000
RightUpLeg -2.465623 -12.760501 -3.596577
RightLeg 0.674374 -0.000000 -0.000000
RightFoot -6.446891 -4.588565 3.234612
RightToeBase -0.300485 -0.000000 0.000000
9
root 0.529042 32.887036 1.321159 8.264346 4.840445 -0.392790
Spine -9.403022 3.677000 -0.057331
Head -2.922105 -2.262423 9.659924
LeftShoulder -14.358062 14.091624 25.436639
LeftArm 17.197859 -26.732746 -30.317460
LeftForeArm 13.736288 -0.000000 15.540966
LeftHand -25.130356 -0.000000 -11.141428
LeftHandThumb1 -26.253704 0.000000 33.147579
RightShoulder -20.606228 15.806268 -35.749534
RightArm -9.876663 8.744248 28.820685
RightForeArm -30.134268 -0.000000 15.270876
RightHand -7.765213 -0.000000 17.043342
RightHandThumb1 -24.326973 -0.000000 -32.862282
LeftUpLeg -3.728027 10.796208 4.998194
LeftLeg -1.648965 -0.000000 0.000000
LeftFoot -5.894526 -2.449871 -16.944404
LeftToeBase 10.398724 -0.000000 -0.000000
RightUpLeg -2.457260 -12.760626 -3.605598
RightLeg 0.686148 -0.000000 -0.000000
RightFoot -6.458857 -4.595932 3.247001
RightToeBase -0.257665 -0.000000 0.000000
